<?xml version="1.0" standalone="no"?>
<!DOCTYPE svg PUBLIC "-//W3C//DTD SVG 20010904//EN"
 "http://www.w3.org/TR/2001/REC-SVG-20010904/DTD/svg10.dtd">
<svg version="1.0" xmlns="http://www.w3.org/2000/svg"
 width="1300.000000pt" height="410.000000pt" viewBox="0 0 1300.000000 410.000000"
 preserveAspectRatio="xMidYMid meet">

<g transform="translate(0.000000,410.000000) scale(0.100000,-0.100000)"
fill="#000000" stroke="none">
<path d="M1340 3545 c-12 -37 -21 -61 -69 -167 -10 -24 -31 -72 -46 -108 -15
-36 -33 -78 -40 -95 -7 -16 -28 -64 -45 -105 -17 -41 -38 -88 -45 -105 -8 -16
-28 -64 -45 -105 -17 -41 -38 -88 -45 -105 -8 -16 -35 -79 -60 -140 -25 -60
-55 -128 -65 -151 -11 -23 -20 -45 -20 -49 0 -4 -9 -26 -20 -49 -10 -23 -33
-75 -50 -116 -39 -93 -43 -104 -68 -160 -11 -25 -34 -79 -51 -120 -18 -41 -38
-88 -46 -105 -7 -16 -28 -64 -45 -105 -17 -41 -37 -88 -45 -105 -23 -51 -52
-117 -84 -195 -18 -41 -36 -82 -40 -91 -5 -8 -23 -51 -41 -94 -33 -83 -42
-105 -84 -197 -14 -31 -26 -60 -26 -64 0 -4 -9 -26 -19 -48 -11 -23 -33 -75
-51 -116 -17 -41 -35 -84 -40 -95 -29 -63 -100 -228 -100 -231 0 -2 90 -4 200
-4 l199 0 15 33 c8 17 29 66 46 107 17 41 40 93 50 116 11 23 20 45 20 49 0 4
7 23 16 43 39 88 54 121 84 192 18 41 38 89 45 105 8 17 28 64 45 105 17 41
38 89 45 105 8 17 28 64 45 105 38 93 42 101 74 172 14 31 26 60 26 64 0 4 9
27 20 51 36 78 58 127 89 203 18 41 38 89 46 105 7 17 28 64 45 105 17 41 37
89 45 105 7 17 34 80 59 140 26 61 53 122 61 137 12 24 12 32 0 54 -7 15 -16
50 -20 78 -4 28 -11 68 -17 90 -28 109 3 520 52 699 22 81 23 131 0 62z"/>
<path d="M4328 1653 c-34 -68 -78 -146 -88 -157 -5 -5 -1 -20 9 -35 10 -14 39
-66 66 -116 26 -49 51 -94 55 -100 4 -5 23 -39 43 -75 19 -36 51 -94 71 -128
20 -35 36 -68 36 -72 0 -5 3 -10 8 -12 4 -2 19 -25 33 -53 55 -106 103 -191
121 -217 10 -14 18 -31 18 -36 0 -5 7 -13 16 -16 25 -10 274 -7 274 3 0 10
-31 72 -40 81 -3 3 -18 30 -34 60 -47 88 -51 95 -56 100 -3 3 -17 28 -32 55
-14 28 -43 79 -63 115 -20 36 -42 77 -48 93 -6 15 -15 27 -19 27 -4 0 -8 4 -8
9 0 5 -16 38 -36 73 -20 34 -57 101 -82 148 -24 47 -48 90 -52 95 -9 11 -32
53 -76 135 -33 62 -40 70 -71 70 -15 0 -28 -13 -45 -47z"/>
<path d="M5124 1687 c-2 -7 -3 -60 -2 -118 l3 -104 472 -3 473 -2 5 22 c3 13
5 66 3 118 l-3 95 -473 3 c-385 2 -473 0 -478 -11z"/>
<path d="M6237 1693 c-4 -3 -7 -55 -7 -114 0 -105 1 -109 23 -114 13 -4 152
-5 310 -3 311 3 311 3 260 -49 -82 -84 -131 -96 -393 -97 l-195 -1 -3 -334
c-2 -261 1 -336 10 -343 15 -9 189 -11 213 -2 14 6 16 32 15 221 -1 119 2 219
7 223 4 5 59 10 122 12 l114 3 33 -53 c19 -29 34 -57 34 -62 0 -6 5 -10 10
-10 6 0 10 -5 10 -11 0 -5 32 -59 70 -119 39 -60 70 -112 70 -115 0 -4 14 -26
30 -51 l31 -44 123 0 c67 0 125 3 129 6 3 4 -7 26 -23 50 -17 23 -30 47 -30
53 0 5 -6 16 -12 23 -12 12 -91 137 -128 203 -9 17 -33 56 -53 87 -21 31 -37
62 -37 68 0 5 -3 10 -7 10 -7 0 -33 47 -33 60 0 3 24 31 53 61 28 31 59 69 67
85 8 16 18 31 22 34 4 3 18 41 32 84 20 59 26 99 26 162 l0 84 -443 0 c-244 0
-447 -3 -450 -7z"/>
<path d="M7625 1676 c-79 -22 -170 -74 -225 -131 -78 -80 -77 -78 -104 -126
-89 -161 -89 -355 1 -519 37 -68 159 -181 235 -218 73 -35 208 -57 287 -47
214 29 373 161 448 372 23 66 23 240 0 306 -19 54 -57 127 -90 173 -54 75
-187 162 -289 190 -62 16 -205 16 -263 0z m274 -244 c181 -88 222 -341 78
-485 -122 -122 -335 -117 -448 11 -134 153 -91 379 91 473 82 43 190 43 279 1z"/>
<path d="M4132 1297 c-6 -12 -28 -51 -48 -87 -45 -80 -77 -137 -119 -215 -18
-33 -43 -78 -55 -100 -54 -95 -75 -132 -94 -170 -12 -22 -25 -43 -29 -46 -5
-4 -7 -15 -5 -25 3 -17 14 -19 137 -19 l133 0 25 45 c14 25 40 72 58 105 50
91 80 146 102 185 63 110 63 96 3 195 -17 28 -40 69 -51 92 -29 58 -43 68 -57
40z"/>
<path d="M5120 975 l1 -335 22 -5 c12 -3 227 -4 477 -3 l455 3 0 110 0 110
-360 5 -360 5 0 105 0 105 313 3 312 2 0 115 0 115 -430 0 -430 0 0 -335z"/>
</g>
</svg>
