<?xml version="1.0" standalone="no"?>
<!DOCTYPE svg PUBLIC "-//W3C//DTD SVG 20010904//EN"
 "http://www.w3.org/TR/2001/REC-SVG-20010904/DTD/svg10.dtd">
<svg version="1.0" xmlns="http://www.w3.org/2000/svg"
 width="512.000000pt" height="512.000000pt" viewBox="0 0 512.000000 512.000000"
 preserveAspectRatio="xMidYMid meet">

<g transform="translate(0.000000,512.000000) scale(0.100000,-0.100000)"
fill="#000000" stroke="none">
<path d="M3945 4800 l-510 -159 -293 0 -293 -1 -24 -25 c-21 -20 -25 -34 -25
-80 l0 -55 -95 0 c-88 0 -98 -2 -120 -25 -25 -24 -25 -26 -25 -215 0 -189 0
-191 25 -215 22 -23 32 -25 120 -25 l95 0 0 -40 0 -40 -240 0 -240 0 0 375 0
376 -25 24 -24 25 -831 0 -831 0 -24 -25 -25 -24 0 -376 0 -375 -96 0 c-53 0
-115 -5 -138 -12 -55 -16 -138 -99 -154 -154 -17 -60 -17 -2648 0 -2708 16
-55 99 -138 154 -154 31 -9 272 -12 978 -12 l936 0 0 -120 0 -120 -255 0 -256
0 -24 -25 c-25 -24 -25 -26 -25 -215 0 -189 0 -191 25 -215 l24 -25 831 0 831
0 24 25 c25 24 25 26 25 215 0 189 0 191 -25 215 l-24 25 -256 0 -255 0 0 120
0 120 936 0 c706 0 947 3 978 12 55 16 138 99 154 154 17 60 17 2648 0 2708
-16 55 -99 138 -154 154 -23 7 -85 12 -138 12 l-96 0 0 40 0 40 56 0 c87 0
133 18 189 75 102 101 102 229 0 330 -56 57 -102 75 -189 75 l-56 0 0 215 c0
216 0 216 -25 240 -15 16 -35 25 -52 24 -15 0 -257 -72 -538 -159z m455 -561
c0 -500 -1 -530 -17 -525 -37 11 -839 257 -851 261 -10 4 -12 62 -10 266 l3
261 430 133 c237 74 433 134 438 134 4 1 7 -238 7 -530z m-2240 -239 l0 -560
-720 0 -720 0 0 560 0 560 720 0 720 0 0 -560z m1200 240 l0 -240 -200 0 -200
0 0 240 0 240 200 0 200 0 0 -240z m-560 0 l0 -80 -40 0 -40 0 0 80 0 80 40 0
40 0 0 -80z m1895 55 c16 -15 25 -36 25 -55 0 -51 -38 -80 -105 -80 l-55 0 0
80 0 80 55 0 c46 0 60 -4 80 -25z m-1510 -477 c-2 -13 -14 -90 -25 -173 -31
-223 -24 -205 -76 -205 l-44 0 0 200 0 200 75 0 c73 0 75 -1 70 -22z m763
-138 c285 -88 529 -160 541 -160 12 0 33 11 46 25 23 22 25 32 25 120 l0 95
95 0 c88 0 98 -2 120 -25 l25 -24 0 -1176 0 -1175 -2240 0 -2240 0 0 1175 0
1176 25 24 c22 23 32 25 120 25 l95 0 0 -215 c0 -216 0 -216 25 -240 l24 -25
831 0 831 0 24 25 c25 24 25 24 25 240 l0 215 280 0 280 0 0 -215 c0 -282 -12
-265 200 -265 204 0 187 -21 229 280 43 305 35 280 81 280 21 0 272 -72 558
-160z m852 -2535 c0 -46 -4 -60 -25 -80 l-24 -25 -2191 0 -2191 0 -24 25 c-21
20 -25 34 -25 80 l0 55 2240 0 2240 0 0 -55z m-2080 -385 l0 -120 -160 0 -160
0 0 120 0 120 160 0 160 0 0 -120z m560 -360 l0 -80 -720 0 -720 0 0 80 0 80
720 0 720 0 0 -80z"/>
<path d="M1225 4295 l-25 -24 0 -271 0 -271 25 -24 c14 -15 35 -25 52 -25 15
1 145 60 288 133 281 142 291 151 269 215 -8 23 -48 47 -269 159 -143 73 -273
132 -288 133 -17 0 -38 -10 -52 -25z m345 -295 c0 -3 -47 -29 -105 -58 l-105
-52 0 110 0 110 105 -52 c58 -29 105 -55 105 -58z"/>
<path d="M2905 3095 l-25 -24 0 -511 0 -511 25 -24 c22 -23 32 -25 120 -25
l95 0 0 -135 c0 -131 1 -137 25 -160 l24 -25 711 0 711 0 24 25 25 24 0 511 0
511 -25 24 c-20 21 -34 25 -80 25 l-55 0 0 135 c0 131 -1 137 -25 160 l-24 25
-751 0 -751 0 -24 -25z m1415 -215 l0 -80 -575 0 -576 0 -24 -25 -25 -24 0
-296 0 -295 -40 0 -40 0 0 400 0 400 640 0 640 0 0 -80z m160 -640 l0 -400
-600 0 -600 0 0 400 0 400 600 0 600 0 0 -400z"/>
<path d="M3440 2400 l0 -80 80 0 80 0 0 80 0 80 -80 0 -80 0 0 -80z"/>
<path d="M3760 2400 l0 -80 280 0 280 0 0 80 0 80 -280 0 -280 0 0 -80z"/>
<path d="M3440 2080 l0 -80 160 0 160 0 0 80 0 80 -160 0 -160 0 0 -80z"/>
<path d="M3920 2080 l0 -80 200 0 200 0 0 80 0 80 -200 0 -200 0 0 -80z"/>
<path d="M505 2935 l-25 -24 0 -671 0 -671 25 -24 24 -25 1071 0 1071 0 24 25
25 24 0 671 0 671 -25 24 -24 25 -1071 0 -1071 0 -24 -25z m1844 -139 c-14
-13 -741 -456 -748 -456 -8 0 -734 442 -750 456 -2 2 335 4 749 4 414 0 751
-2 749 -4z m-1235 -351 c256 -157 474 -285 486 -285 13 0 231 128 487 285 255
157 465 285 468 285 3 0 5 -236 5 -525 l0 -525 -960 0 -960 0 0 525 c0 289 3
525 6 525 3 0 214 -128 468 -285z"/>
</g>
</svg>
