<?xml version="1.0" standalone="no"?>
<!DOCTYPE svg PUBLIC "-//W3C//DTD SVG 20010904//EN"
 "http://www.w3.org/TR/2001/REC-SVG-20010904/DTD/svg10.dtd">
<svg version="1.0" xmlns="http://www.w3.org/2000/svg"
 width="512.000000pt" height="512.000000pt" viewBox="0 0 512.000000 512.000000"
 preserveAspectRatio="xMidYMid meet">

<g transform="translate(0.000000,512.000000) scale(0.100000,-0.100000)"
fill="#000000" stroke="none">
<path d="M229 3617 c-72 -48 -69 -16 -69 -749 l0 -658 -59 0 c-52 0 -62 -3
-80 -26 -19 -24 -21 -40 -21 -147 0 -100 3 -128 20 -162 27 -56 80 -85 154
-85 53 0 56 -1 56 -25 0 -25 -1 -25 -90 -25 -83 0 -93 -2 -115 -25 -32 -31
-32 -69 0 -100 23 -24 29 -25 165 -25 136 0 142 1 165 25 22 21 25 33 25 100
l0 75 39 0 c37 0 39 -2 50 -42 28 -110 117 -206 228 -248 82 -31 206 -25 281
14 98 50 161 126 193 234 l12 42 159 0 c145 0 160 2 178 20 25 25 26 71 1 101
-18 23 -26 24 -185 29 l-165 5 -29 58 -29 57 684 0 684 0 -21 -30 c-11 -16
-25 -43 -31 -59 l-11 -30 -340 -3 -340 -3 -24 -28 c-29 -34 -30 -56 -3 -91
l20 -26 338 0 337 0 13 -47 c25 -96 96 -179 194 -230 74 -38 198 -44 280 -13
109 41 198 138 227 248 l11 42 477 0 478 0 17 -56 c31 -100 92 -170 191 -221
73 -38 198 -44 278 -14 110 42 192 129 224 238 l15 53 106 0 c121 0 159 15
187 74 24 50 24 851 1 897 -27 51 -385 519 -410 535 -13 9 -41 18 -62 21 -35
5 -40 10 -61 58 -34 77 -84 130 -155 164 -52 26 -98 36 -297 66 -274 41 -293
42 -320 15 -19 -19 -20 -33 -20 -415 0 -382 1 -396 20 -415 30 -30 83 -27 109
6 19 25 21 40 21 200 l0 174 219 0 220 0 3 -298 c3 -330 4 -331 71 -372 29
-18 52 -20 280 -20 l247 0 0 -59 0 -59 -36 -6 c-45 -9 -74 -38 -74 -74 0 -40
33 -72 75 -72 l35 0 0 -135 0 -135 -84 0 -85 0 -24 54 c-33 70 -103 140 -175
174 -50 24 -70 27 -157 27 -95 0 -103 -2 -163 -34 -73 -40 -132 -101 -163
-172 l-23 -49 -83 0 -83 0 0 311 0 311 -30 30 c-25 24 -36 29 -58 24 -57 -14
-62 -31 -62 -227 l0 -179 -65 0 -65 0 0 660 c0 716 2 687 -55 740 l-27 25
-1389 3 c-1380 2 -1389 2 -1409 -18 -27 -27 -26 -81 1 -106 20 -18 60 -19
1375 -22 l1354 -2 0 -640 0 -640 -1595 0 -1595 0 0 639 0 639 120 4 c107 3
122 5 141 25 27 27 29 75 4 103 -17 18 -30 20 -165 20 -136 0 -150 -2 -181
-23z m3908 -166 c202 -30 244 -45 277 -96 9 -13 16 -27 16 -30 0 -3 -112 -5
-250 -5 l-250 0 0 80 c0 44 3 80 8 80 4 0 94 -13 199 -29z m656 -516 c152
-201 177 -239 177 -270 l0 -35 -225 0 -225 0 0 270 0 270 48 0 47 0 178 -235z
m-4296 -935 l-30 -60 -158 0 -159 0 0 60 0 60 188 0 189 0 -30 -60z m3283 0
l0 -60 -328 0 -329 0 -31 60 -31 60 360 0 359 0 0 -60z m-2839 15 c64 -45 91
-104 87 -187 -4 -82 -39 -139 -108 -176 -38 -20 -56 -23 -112 -20 -82 4 -139
39 -176 108 -20 38 -23 56 -20 112 4 82 39 139 108 176 38 20 56 23 112 20 55
-3 75 -9 109 -33z m1902 26 c14 -5 42 -25 62 -43 101 -88 99 -232 -5 -321 -99
-84 -255 -54 -319 63 -60 108 -8 252 109 299 32 13 122 14 153 2z m1724 -24
c55 -38 93 -110 93 -177 0 -67 -38 -139 -93 -177 -31 -22 -53 -28 -106 -31
-82 -4 -141 23 -186 87 -27 39 -30 50 -30 121 0 71 3 82 30 121 45 64 104 91
186 87 53 -3 75 -9 106 -31z"/>
<path d="M695 3330 c-50 -20 -50 -16 -53 -449 -2 -223 0 -421 3 -439 12 -67
78 -94 123 -52 22 21 22 21 22 464 0 409 -1 444 -17 458 -24 21 -54 28 -78 18z"/>
<path d="M1283 3330 c-12 -5 -26 -18 -32 -29 -7 -13 -11 -166 -11 -455 l0
-435 26 -20 c35 -28 69 -26 99 4 l25 24 0 430 0 430 -22 25 c-27 29 -55 38
-85 26z"/>
<path d="M2470 3327 c-49 -25 -50 -34 -50 -468 0 -271 4 -417 11 -438 19 -53
77 -68 117 -31 22 21 22 21 22 464 0 409 -1 444 -17 458 -27 24 -55 29 -83 15z"/>
<path d="M3063 3330 c-12 -5 -26 -18 -32 -29 -7 -13 -11 -166 -11 -454 l0
-434 23 -21 c29 -27 67 -28 98 -3 l24 19 3 435 3 435 -23 25 c-27 30 -55 39
-85 27z"/>
<path d="M1690 3300 c-51 -24 -127 -93 -141 -129 -16 -41 5 -70 132 -191 l121
-113 -128 -122 c-119 -113 -128 -124 -128 -158 0 -30 8 -45 40 -78 68 -70 118
-94 199 -94 50 0 80 6 107 20 59 32 333 299 357 348 26 53 26 109 2 162 -22
50 -302 324 -357 350 -58 28 -149 30 -204 5z m272 -262 c143 -135 167 -164
152 -191 -5 -9 -71 -74 -146 -146 -141 -136 -173 -155 -218 -131 -21 11 -17
17 104 139 102 103 126 133 126 156 0 23 -25 53 -127 157 -135 136 -140 147
-65 148 29 0 52 -17 174 -132z"/>
</g>
</svg>
