<?xml version="1.0" standalone="no"?>
<!DOCTYPE svg PUBLIC "-//W3C//DTD SVG 20010904//EN"
 "http://www.w3.org/TR/2001/REC-SVG-20010904/DTD/svg10.dtd">
<svg version="1.0" xmlns="http://www.w3.org/2000/svg"
 width="512.000000pt" height="511.000000pt" viewBox="0 0 512.000000 511.000000"
 preserveAspectRatio="xMidYMid meet">

<g transform="translate(0.000000,511.000000) scale(0.100000,-0.100000)"
fill="#000000" stroke="none">
<path d="M1994 4356 c-396 -65 -719 -222 -992 -483 -57 -54 -62 -62 -62 -102
0 -56 41 -101 93 -101 37 0 56 12 157 105 161 145 413 281 632 340 418 112
810 69 1198 -132 99 -51 131 -63 155 -58 62 12 99 78 75 136 -32 76 -372 224
-645 280 -129 26 -487 35 -611 15z"/>
<path d="M2115 3883 c-299 -37 -604 -179 -780 -364 -46 -48 -55 -63 -55 -94 0
-52 44 -95 98 -95 34 0 49 8 108 61 318 281 744 370 1136 239 150 -50 266
-118 401 -233 67 -57 85 -67 116 -67 44 0 86 33 97 75 10 42 -17 86 -95 153
-204 176 -431 279 -696 317 -92 13 -257 17 -330 8z"/>
<path d="M3414 3836 c-38 -38 -43 -72 -17 -116 52 -89 183 -49 183 55 0 39
-59 95 -100 95 -23 0 -41 -9 -66 -34z"/>
<path d="M313 3519 c-114 -15 -229 -102 -279 -212 l-29 -62 -3 -668 c-3 -747
-3 -746 65 -845 115 -168 340 -211 510 -96 61 42 94 83 131 162 l27 57 0 690
0 690 -23 57 c-64 159 -225 250 -399 227z m139 -215 c35 -18 65 -58 79 -103 7
-24 9 -250 7 -677 l-3 -640 -25 -37 c-29 -43 -91 -77 -142 -77 -55 0 -118 39
-145 90 l-23 44 2 656 3 657 28 36 c54 72 138 91 219 51z"/>
<path d="M3857 3509 c-141 -33 -238 -151 -245 -299 -5 -98 21 -171 84 -235 66
-69 138 -98 251 -103 l92 -4 3 -532 3 -531 25 -49 c34 -67 92 -123 158 -154
77 -36 192 -38 268 -4 93 42 164 135 184 241 6 32 10 253 10 541 l0 488 93 4
c112 5 172 29 239 95 67 66 93 129 92 228 0 59 -5 92 -21 126 -24 55 -81 120
-129 150 -75 46 -109 49 -604 48 -256 -1 -482 -5 -503 -10z m1000 -210 c82
-51 83 -159 0 -209 -27 -17 -51 -20 -160 -20 -133 0 -159 -6 -189 -44 -16 -19
-18 -66 -18 -584 0 -506 -2 -568 -17 -599 -37 -79 -135 -96 -197 -34 l-31 31
-5 585 -5 585 -28 27 c-27 27 -30 28 -175 33 -102 4 -154 10 -168 19 -32 21
-54 65 -54 108 0 45 20 77 64 104 29 18 56 19 490 19 448 0 459 0 493 -21z"/>
<path d="M2091 3385 c-167 -37 -297 -104 -412 -213 -124 -116 -206 -254 -250
-417 -30 -112 -30 -306 0 -420 80 -303 324 -543 626 -616 123 -30 296 -30 410
0 301 80 531 306 617 608 19 65 22 102 22 223 0 129 -3 155 -28 235 -82 271
-279 477 -543 570 -133 46 -311 58 -442 30z m323 -205 c120 -30 209 -82 302
-175 138 -137 201 -300 191 -495 -9 -168 -69 -301 -192 -425 -122 -123 -279
-188 -455 -189 -116 0 -181 14 -285 64 -139 67 -238 166 -305 305 -51 108 -65
171 -64 295 2 131 32 234 102 341 154 235 438 348 706 279z"/>
<path d="M2198 2910 c-116 -20 -222 -100 -275 -208 -25 -50 -28 -68 -28 -152
0 -87 3 -101 32 -161 61 -123 173 -198 309 -207 235 -15 419 190 382 426 -31
198 -223 335 -420 302z m144 -216 c45 -23 80 -86 80 -142 0 -142 -155 -223
-267 -138 -59 46 -84 141 -51 204 47 90 148 122 238 76z"/>
<path d="M1340 1759 c-65 -26 -80 -105 -30 -162 65 -75 227 -190 362 -258 303
-153 734 -173 1056 -49 201 77 440 238 495 334 43 75 -34 168 -115 137 -14 -5
-54 -35 -88 -66 -287 -255 -685 -349 -1060 -249 -179 47 -306 116 -470 255
-83 70 -101 77 -150 58z"/>
<path d="M1013 1422 c-70 -10 -99 -114 -45 -164 36 -33 68 -40 109 -23 39 16
67 71 57 110 -13 51 -67 85 -121 77z"/>
<path d="M3445 1415 c-16 -8 -66 -46 -110 -85 -428 -381 -1046 -507 -1591
-325 -107 36 -238 96 -321 146 -41 25 -85 44 -110 47 -37 4 -46 1 -73 -26 -45
-45 -42 -93 8 -141 39 -38 230 -140 342 -184 95 -37 260 -83 375 -103 139 -25
428 -25 580 0 363 60 704 227 963 473 64 61 72 72 72 105 0 27 -8 46 -27 67
-34 36 -69 44 -108 26z"/>
</g>
</svg>
