<?xml version="1.0" standalone="no"?>
<!DOCTYPE svg PUBLIC "-//W3C//DTD SVG 20010904//EN"
 "http://www.w3.org/TR/2001/REC-SVG-20010904/DTD/svg10.dtd">
<svg version="1.0" xmlns="http://www.w3.org/2000/svg"
 width="512.000000pt" height="512.000000pt" viewBox="0 0 512.000000 512.000000"
 preserveAspectRatio="xMidYMid meet">

<g transform="translate(0.000000,512.000000) scale(0.100000,-0.100000)"
fill="#27bf19" stroke="none">
<path d="M1685 4133 c-190 -25 -360 -153 -435 -328 -11 -26 -73 -305 -136
-619 -64 -314 -117 -572 -118 -572 0 -1 -50 -16 -111 -33 -394 -116 -689 -285
-809 -464 -218 -329 46 -667 690 -886 909 -309 2451 -329 3435 -47 415 120
688 272 839 468 11 15 33 53 48 85 23 50 27 71 27 148 0 77 -4 98 -28 149 -15
32 -43 81 -64 108 -73 100 -274 248 -336 248 -54 0 -93 -67 -71 -124 3 -8 50
-44 103 -80 143 -95 211 -178 227 -273 36 -230 -363 -472 -1021 -616 -406 -90
-789 -133 -1270 -144 -661 -14 -1294 66 -1791 228 -550 179 -785 405 -651 631
60 102 212 210 416 296 120 51 318 118 326 111 2 -2 -3 -33 -10 -69 -19 -88
-18 -117 5 -192 23 -74 78 -144 143 -182 79 -46 432 -142 697 -190 278 -50
411 -61 770 -61 350 0 477 10 740 56 254 44 601 135 706 185 98 46 164 144
179 264 7 53 -76 479 -100 517 -27 41 -56 39 -219 -12 -415 -132 -776 -192
-1203 -202 -333 -8 -640 18 -930 77 -121 25 -129 25 -158 -5 -35 -34 -35 -96
0 -123 44 -35 372 -89 675 -113 193 -15 614 -7 800 16 264 31 541 88 783 161
65 20 119 35 121 33 2 -2 18 -79 36 -171 l33 -167 -24 -48 c-17 -33 -36 -55
-64 -70 -54 -29 -319 -105 -496 -142 -692 -144 -1389 -118 -2058 75 -196 57
-229 74 -260 138 l-24 48 148 732 c110 549 154 744 173 784 31 63 115 146 177
173 63 28 145 40 208 29 29 -4 152 -46 272 -93 495 -191 478 -191 969 0 120
46 243 88 272 93 111 18 221 -18 308 -100 78 -74 98 -128 156 -417 27 -136 55
-258 61 -270 18 -33 63 -46 105 -28 62 26 62 33 1 331 -30 148 -64 294 -76
324 -11 30 -43 84 -70 120 -105 139 -256 214 -431 213 -106 0 -123 -5 -402
-114 -278 -108 -320 -120 -405 -120 -86 0 -167 25 -448 134 -248 97 -323 114
-430 100z"/>
</g>
</svg>
