<?xml version="1.0" standalone="no"?>
<!DOCTYPE svg PUBLIC "-//W3C//DTD SVG 20010904//EN"
 "http://www.w3.org/TR/2001/REC-SVG-20010904/DTD/svg10.dtd">
<svg version="1.0" xmlns="http://www.w3.org/2000/svg"
 width="512.000000pt" height="512.000000pt" viewBox="0 0 512.000000 512.000000"
 preserveAspectRatio="xMidYMid meet">

<g transform="translate(0.000000,512.000000) scale(0.100000,-0.100000)"
fill="#000000" stroke="none">
<path d="M679 4896 c-105 -28 -192 -106 -229 -203 -20 -53 -20 -75 -20 -2133
0 -2066 0 -2080 20 -2134 29 -76 88 -139 168 -178 l67 -33 1235 0 1235 0 67
33 c80 39 139 102 168 178 19 52 20 77 20 454 l0 400 601 0 c543 0 604 2 629
17 16 9 33 27 39 40 8 17 11 382 11 1224 0 1304 3 1241 -55 1267 -19 9 -182
12 -625 12 l-600 0 0 400 c0 377 -1 402 -20 454 -29 76 -88 139 -168 178 l-67
33 -1215 2 c-942 1 -1225 -1 -1261 -11z m530 -404 c77 -152 106 -201 126 -210
19 -9 177 -12 585 -12 408 0 566 3 585 12 20 9 49 58 126 210 l100 198 190 0
c150 0 196 -3 219 -15 59 -31 60 -37 60 -454 l0 -381 -929 -2 -929 -3 -26 -24
c-51 -48 -40 -142 20 -170 18 -8 457 -11 1584 -11 l1560 0 0 -1070 0 -1070
-1560 0 c-1127 0 -1566 -3 -1584 -11 -60 -28 -71 -122 -20 -170 l26 -24 929
-3 929 -2 0 -215 0 -215 -1280 0 -1280 0 0 1875 c0 1655 2 1879 15 1905 28 54
51 59 262 60 l192 0 100 -198z m1229 93 l-53 -105 -465 0 -465 0 -53 105 -52
105 570 0 570 0 -52 -105z m762 -4005 c0 -35 -7 -74 -15 -90 -33 -64 43 -60
-1265 -60 -1308 0 -1232 -4 -1265 60 -8 16 -15 55 -15 90 l0 60 1280 0 1280 0
0 -60z"/>
<path d="M1739 3381 l-29 -29 0 -792 0 -792 29 -29 c48 -47 130 -37 164 21 15
26 17 98 17 800 0 702 -2 774 -17 800 -34 58 -116 68 -164 21z"/>
<path d="M2279 3283 c-131 -129 -158 -169 -143 -215 10 -36 253 -276 290 -288
82 -27 162 66 123 143 -6 12 -44 56 -85 97 l-74 75 80 80 c91 90 105 125 75
180 -20 38 -52 55 -102 55 -33 0 -48 -11 -164 -127z"/>
<path d="M2817 3390 c-14 -11 -31 -36 -37 -54 -16 -49 4 -87 89 -170 l70 -70
-78 -81 c-88 -92 -102 -124 -76 -178 22 -47 56 -63 123 -59 15 1 65 43 141
117 197 193 197 195 8 383 -127 125 -136 132 -174 132 -25 0 -50 -8 -66 -20z"/>
<path d="M2193 2334 c-29 -15 -63 -65 -63 -94 0 -30 34 -80 65 -94 49 -24 681
-24 730 0 31 14 65 64 65 94 0 30 -34 80 -65 94 -49 24 -684 23 -732 0z"/>
<path d="M2184 1901 c-44 -27 -60 -77 -41 -124 31 -72 -38 -67 955 -67 l894 0
29 29 c32 32 38 79 17 126 -26 57 9 55 -945 55 -848 0 -879 -1 -909 -19z"/>
</g>
</svg>
