<?xml version="1.0" standalone="no"?>
<!DOCTYPE svg PUBLIC "-//W3C//DTD SVG 20010904//EN"
 "http://www.w3.org/TR/2001/REC-SVG-20010904/DTD/svg10.dtd">
<svg version="1.0" xmlns="http://www.w3.org/2000/svg"
 width="512.000000pt" height="512.000000pt" viewBox="0 0 512.000000 512.000000"
 preserveAspectRatio="xMidYMid meet">

<g transform="translate(0.000000,512.000000) scale(0.100000,-0.100000)"
fill="#27bf19" stroke="none">
<path d="M2730 5040 c-797 -62 -1489 -539 -1840 -1265 -26 -56 -69 -161 -94
-235 l-46 -135 -157 -5 c-177 -6 -206 -15 -242 -73 -37 -60 -29 -116 28 -211
92 -153 135 -289 147 -471 6 -97 6 -101 -18 -130 -31 -38 -311 -438 -373 -534
-92 -142 -130 -273 -129 -441 1 -191 41 -305 183 -515 180 -266 231 -420 231
-700 0 -131 2 -145 23 -175 12 -18 35 -43 50 -54 l28 -21 1627 0 c1534 0 1632
1 1712 18 396 85 700 377 802 772 18 69 22 118 25 363 l5 284 69 106 c365 559
456 1265 245 1905 -262 797 -966 1386 -1796 1501 -138 19 -349 26 -480 16z
m450 -316 c624 -93 1158 -484 1442 -1058 84 -169 140 -345 175 -549 26 -152
24 -463 -5 -617 -41 -223 -115 -430 -217 -611 -57 -101 -75 -120 -98 -101 -37
31 -123 42 -319 42 -109 0 -198 3 -198 6 0 3 22 31 48 62 71 83 114 146 165
242 319 593 187 1325 -318 1770 -204 180 -462 301 -735 346 -118 20 -408 13
-515 -11 -443 -100 -798 -373 -1002 -770 l-38 -75 -249 0 -248 0 7 28 c12 48
56 154 107 257 202 405 543 725 965 906 324 139 680 185 1033 133z m-5 -784
c482 -130 815 -517 866 -1005 28 -266 -38 -522 -194 -755 -63 -95 -211 -243
-302 -303 l-70 -47 -305 0 -305 0 -41 78 c-38 72 -372 561 -417 609 -19 21
-20 31 -14 135 10 176 56 319 157 484 37 62 41 74 38 120 -5 56 -27 92 -73
121 -27 16 -60 18 -317 21 -159 2 -288 6 -288 9 0 18 116 168 179 230 163 162
353 265 576 313 126 28 392 23 510 -10z m-990 -857 c-47 -112 -84 -282 -92
-420 l-6 -103 -629 0 c-496 0 -628 3 -628 13 -2 141 -35 337 -79 461 -12 33
-21 61 -21 63 0 1 329 3 731 3 692 0 731 -1 724 -17z m189 -1035 l147 -213
-438 -5 c-384 -5 -444 -8 -483 -23 -104 -40 -204 -148 -235 -252 -25 -86 -21
-525 5 -655 34 -166 104 -312 216 -451 l64 -79 -463 2 -462 3 -7 87 c-19 251
-96 457 -268 713 -104 155 -114 173 -134 252 -28 108 -18 215 31 323 11 25 93
150 182 278 l162 232 768 0 767 0 148 -212z m1990 -549 c24 -28 26 -38 26
-125 l0 -94 -1370 0 -1370 0 0 99 c0 93 1 100 26 125 l27 26 1317 0 1318 0 26
-31z m9 -551 c-12 -68 -65 -188 -112 -254 -123 -176 -305 -287 -514 -314 -103
-13 -1366 -13 -1463 1 -240 33 -451 184 -560 400 -29 58 -64 163 -64 191 0 4
612 8 1360 8 l1359 0 -6 -32z"/>
</g>
</svg>
