<?xml version="1.0" standalone="no"?>
<!DOCTYPE svg PUBLIC "-//W3C//DTD SVG 20010904//EN"
 "http://www.w3.org/TR/2001/REC-SVG-20010904/DTD/svg10.dtd">
<svg version="1.0" xmlns="http://www.w3.org/2000/svg"
 width="512.000000pt" height="512.000000pt" viewBox="0 0 512.000000 512.000000"
 preserveAspectRatio="xMidYMid meet">

<g transform="translate(0.000000,512.000000) scale(0.100000,-0.100000)"
fill="#000000" stroke="none">
<path d="M1008 5105 c-598 -97 -1032 -632 -1004 -1235 18 -382 209 -725 524
-939 181 -122 424 -201 623 -201 90 0 119 17 119 70 0 59 -32 74 -180 84 -275
19 -561 184 -739 425 -137 184 -210 431 -198 665 40 760 840 1222 1522 879
280 -142 478 -402 546 -718 21 -98 41 -125 88 -125 15 0 37 9 49 20 28 26 29
71 2 176 -116 454 -463 789 -920 889 -105 23 -323 28 -432 10z"/>
<path d="M3740 5105 c-490 -84 -857 -421 -980 -899 -35 -137 -20 -196 49 -196
50 0 69 26 90 125 109 509 563 860 1075 832 766 -42 1231 -859 872 -1533 -165
-310 -487 -527 -816 -550 -114 -8 -139 -13 -161 -35 -25 -25 -24 -74 1 -99 40
-40 258 -20 430 38 331 113 591 354 726 673 243 576 -8 1251 -571 1532 -220
110 -486 151 -715 112z"/>
<path d="M3652 4387 c-22 -23 -27 -51 -16 -82 12 -29 60 -45 138 -45 l75 0 3
-386 3 -386 24 -19 c30 -25 76 -24 101 1 19 19 20 33 20 405 l0 385 80 0 c84
0 132 15 144 45 12 32 6 62 -17 83 -23 21 -30 22 -278 22 -254 0 -256 0 -277
-23z"/>
<path d="M1110 4391 c-85 -28 -157 -88 -184 -153 -22 -51 -20 -143 3 -193 32
-69 75 -100 223 -159 178 -71 195 -81 218 -119 26 -42 25 -67 -2 -107 -33 -48
-81 -70 -154 -70 -76 0 -141 22 -190 64 -22 18 -49 38 -61 45 -47 24 -103 -14
-103 -70 0 -19 14 -40 49 -72 83 -78 186 -117 307 -117 251 0 406 236 275 417
-46 64 -89 90 -248 154 -81 33 -156 67 -165 76 -25 22 -23 84 2 116 48 61 168
62 275 3 77 -42 103 -45 134 -12 76 81 -75 195 -269 202 -47 2 -96 0 -110 -5z"/>
<path d="M2496 3905 c-128 -46 -243 -238 -312 -525 -15 -63 -29 -116 -30 -118
-1 -2 -46 10 -100 27 -393 120 -643 79 -695 -113 -34 -125 68 -315 283 -527
l101 -99 -104 -102 c-168 -166 -258 -302 -281 -425 -35 -192 128 -303 402
-273 104 12 230 39 328 71 35 12 64 19 66 18 1 -2 15 -56 30 -119 105 -436
310 -633 511 -489 104 75 198 263 255 511 12 54 26 98 30 98 4 0 27 -7 51 -16
80 -28 239 -63 339 -74 253 -28 404 59 402 231 -2 122 -85 263 -265 446 l-120
123 119 122 c184 189 264 325 266 449 1 79 -31 142 -91 180 -67 43 -113 53
-236 52 -115 -1 -211 -17 -355 -59 -47 -14 -92 -27 -101 -30 -13 -4 -21 14
-39 93 -68 296 -188 503 -316 547 -57 19 -86 20 -138 1z m106 -152 c40 -24 94
-109 135 -211 31 -80 99 -330 92 -336 -2 -2 -62 -29 -134 -61 -110 -48 -134
-56 -155 -47 -109 45 -240 109 -240 118 0 29 61 247 89 320 39 101 100 198
138 218 36 19 39 19 75 -1z m-744 -568 c42 -8 121 -29 175 -46 l99 -30 -6 -32
c-3 -18 -10 -84 -17 -147 -6 -63 -12 -115 -12 -116 -1 0 -49 -34 -106 -75 -58
-41 -111 -78 -119 -82 -18 -11 -194 160 -273 265 -54 73 -99 166 -99 206 0 76
142 98 358 57z m1681 14 c27 -5 57 -19 67 -30 37 -41 7 -134 -79 -249 -46 -62
-198 -222 -239 -251 l-27 -19 -113 82 c-62 45 -114 83 -116 84 -2 1 -8 46 -13
100 -5 54 -12 120 -15 146 l-6 47 98 30 c198 61 345 81 443 60z m-1185 -181
c43 -22 45 -19 -48 -72 l-49 -29 6 48 c4 26 7 56 7 67 0 22 18 19 84 -14z
m510 -41 l6 -58 -62 35 c-35 19 -64 39 -65 43 -4 11 100 53 108 45 4 -4 9 -33
13 -65z m-88 -179 l101 -60 7 -94 c3 -52 3 -136 0 -188 l-7 -93 -111 -65 c-61
-36 -132 -77 -157 -91 l-45 -26 -145 84 c-79 46 -151 89 -159 94 -12 8 -16 40
-18 162 -5 224 -14 204 136 292 200 117 178 110 242 75 30 -17 100 -58 156
-90z m-686 -248 c0 -38 -2 -70 -5 -70 -11 0 -94 65 -92 72 3 9 80 67 90 68 4
0 7 -31 7 -70z m1005 38 c24 -18 44 -35 44 -38 0 -6 -86 -70 -94 -70 -3 0 -5
32 -5 70 0 39 2 70 5 70 3 0 26 -15 50 -32z m-1210 -148 c4 -7 175 -131 212
-155 1 0 7 -52 13 -115 6 -63 13 -129 16 -147 l6 -32 -84 -25 c-285 -87 -518
-93 -543 -15 -23 73 62 210 242 392 104 103 125 118 138 97z m1506 -107 c198
-202 273 -344 213 -403 -59 -59 -289 -41 -543 42 l-63 20 6 47 c3 25 10 91 15
145 6 55 14 102 19 105 48 32 204 146 208 153 12 19 35 2 145 -109z m-1007
-224 c6 -5 -16 -20 -48 -34 -32 -14 -60 -25 -61 -23 -2 2 -6 32 -10 67 l-7 64
58 -33 c33 -18 63 -37 68 -41z m480 14 c-4 -32 -9 -61 -13 -65 -4 -4 -31 4
-60 18 -30 13 -51 27 -47 31 6 6 118 72 124 73 1 0 -1 -26 -4 -57z m-216 -146
c37 -19 93 -44 125 -57 31 -13 57 -26 57 -29 0 -3 -11 -51 -24 -106 -31 -128
-80 -264 -118 -331 -29 -52 -98 -124 -119 -124 -51 0 -128 99 -180 233 -29 75
-89 292 -89 321 0 7 44 32 98 55 53 23 108 48 122 56 37 21 53 19 128 -18z"/>
<path d="M2507 2612 c-23 -25 -22 -85 1 -105 26 -24 85 -22 107 3 43 48 10
120 -55 120 -23 0 -43 -7 -53 -18z"/>
<path d="M982 2375 c-392 -71 -731 -345 -888 -716 -191 -452 -80 -984 277
-1325 100 -95 186 -154 310 -214 690 -328 1489 50 1679 794 35 137 20 196 -49
196 -50 0 -69 -26 -90 -125 -45 -210 -142 -387 -292 -536 -126 -123 -294 -218
-474 -266 -89 -24 -118 -27 -260 -26 -141 0 -172 3 -259 26 -651 173 -972 890
-669 1492 156 308 492 538 823 561 148 10 180 25 180 84 0 55 -28 70 -127 69
-49 0 -121 -7 -161 -14z"/>
<path d="M3870 2370 c-25 -25 -26 -74 -1 -99 22 -22 47 -27 161 -35 156 -11
322 -70 467 -166 373 -247 549 -700 439 -1131 -93 -366 -383 -658 -752 -756
-87 -23 -118 -26 -259 -26 -142 -1 -171 2 -260 26 -394 106 -681 405 -766 802
-21 99 -40 125 -90 125 -69 0 -84 -59 -49 -196 135 -528 578 -888 1120 -911
693 -29 1268 552 1236 1247 -12 267 -99 494 -271 707 -209 260 -559 433 -876
433 -66 0 -82 -3 -99 -20z"/>
<path d="M984 1616 c-17 -8 -34 -21 -38 -31 -3 -9 -6 -205 -6 -436 l0 -420 25
-24 c24 -25 26 -25 213 -25 176 0 191 1 216 21 33 26 36 79 6 109 -18 18 -33
20 -165 20 l-145 0 0 125 0 125 130 0 c126 0 132 1 155 25 32 31 32 69 0 100
-23 24 -29 25 -155 25 l-130 0 0 125 0 125 145 0 c132 0 147 2 165 20 27 27
26 81 -1 106 -19 17 -40 19 -203 21 -137 2 -189 -1 -212 -11z"/>
<path d="M3632 1614 c-12 -8 -26 -23 -31 -33 -11 -20 -151 -784 -151 -823 0
-39 31 -71 69 -71 63 0 69 16 122 308 26 147 49 271 51 277 2 6 41 -115 86
-268 67 -228 87 -283 108 -301 41 -37 110 -28 135 19 6 11 46 143 89 292 43
149 79 269 80 266 0 -3 25 -128 54 -278 58 -299 64 -315 127 -315 36 0 69 32
69 67 0 36 -150 806 -160 827 -28 51 -92 63 -136 26 -23 -20 -39 -67 -114
-327 -54 -190 -89 -297 -93 -285 -3 11 -42 143 -86 292 -44 150 -85 281 -91
292 -15 29 -50 51 -80 51 -14 0 -36 -7 -48 -16z"/>
</g>
</svg>
